<svg width="100%" height="100%" style="max-height:64px;max-width:64px" viewBox="0 0 32 32">
    <path d="M0 8.313q0-.125.016-.234t.016-.203V7.47q.156-1.594.844-2.922t1.875-2.391Q3.939 1.063 5.329.532T8.313.001q1.281 0 2.453.344t2.203 1.063q1.031.688 1.797 1.609T16 5.095q.5-1.156 1.25-2.078t1.781-1.609Q20.094.689 21.25.345t2.438-.344q1.594 0 2.984.531t2.578 1.625q1.219 1.063 1.891 2.391t.828 2.922q.031.094.031.203v.641q0 1.031-.172 2.047t-.516 1.984-.797 1.844-1.047 1.688q-.594.781-1.25 1.547t-1.375 1.516q-.719.719-1.469 1.438t-1.563 1.406-1.578 1.359-1.484 1.328q-.719.625-1.406 1.297t-1.313 1.391q-.344.375-.641.734t-.547.703-.453.688-.391.656q-.344-.656-.844-1.359t-1.156-1.422q-.625-.719-1.313-1.406t-1.438-1.313q-.719-.625-1.469-1.281t-1.563-1.344q-.813-.719-1.578-1.438t-1.484-1.438q-.719-.75-1.375-1.516t-1.25-1.547q-.563-.813-1.016-1.703t-.797-1.859q-.188-.5-.313-.984t-.219-.984T.042 9.33t-.047-1.016z" class="symbolFill"/>
    <path d="M0 8.313q0-.125.016-.234t.016-.203V7.47q.156-1.594.844-2.922t1.875-2.391Q3.939 1.063 5.329.532T8.313.001q1.281 0 2.453.344t2.203 1.063q1.031.688 1.797 1.609T16 5.095q.5-1.156 1.25-2.078t1.781-1.609Q20.094.689 21.25.345t2.438-.344q1.594 0 2.984.531t2.578 1.625q1.219 1.063 1.891 2.391t.828 2.922q.031.094.031.203v.641q0 1.031-.172 2.047t-.516 1.984-.797 1.844-1.047 1.688q-.594.781-1.25 1.547t-1.375 1.516q-.719.719-1.469 1.438t-1.563 1.406-1.578 1.359-1.484 1.328q-.719.625-1.406 1.297t-1.313 1.391q-.344.375-.641.734t-.547.703-.453.688-.391.656q-.344-.656-.844-1.359t-1.156-1.422q-.625-.719-1.313-1.406t-1.438-1.313q-.719-.625-1.469-1.281t-1.563-1.344q-.813-.719-1.578-1.438t-1.484-1.438q-.719-.75-1.375-1.516t-1.25-1.547q-.563-.813-1.016-1.703t-.797-1.859q-.188-.5-.313-.984t-.219-.984T.042 9.33t-.047-1.016zm1.281 0q0 1.031.203 2.031t.578 1.969q.406.969.906 1.844t1.094 1.625q.625.75 1.344 1.516t1.531 1.578 1.625 1.531 1.594 1.375q.781.625 1.563 1.344t1.594 1.531q.844.781 1.516 1.531t1.172 1.438q.531-.688 1.203-1.438t1.484-1.531q.813-.813 1.609-1.531t1.578-1.344q.781-.656 1.578-1.375t1.609-1.531q.844-.813 1.563-1.578t1.313-1.516q.625-.75 1.125-1.625t.875-1.844q.406-.969.594-1.969t.188-2.031v-.547l-.031-.141q-.125-1.375-.703-2.5t-1.578-2.031-2.172-1.359-2.547-.453q-1.094 0-2.078.297t-1.859.891-1.516 1.375-1.047 1.75q-.188.469-.484 1.172t-.703 1.641q-.125-.344-.422-1.047t-.766-1.766q-.375-.969-1.016-1.75T12.251 2.47q-.875-.594-1.859-.891t-2.078-.297q-1.344 0-2.531.453T3.595 3.094 2.032 5.125t-.719 2.5v.141l-.031.172v.375z" class="symbolOutline"/>
</svg>
