<svg width="100%" height="100%" style="max-height:64px;max-width:64px" viewBox="0 0 32 32">
    <path d="M2.281 29.5V17.625h.063l-.031-.031L13.844 6.063l2.969 3L6.782 19.094q-.625.625-1.5.625t-1.469-.625l-.438-.438v5.781l4.063 3.969h5.656l-.375-.375q-.625-.625-.625-1.5t.625-1.469L22.75 14.999l2.969 2.969-11.438 11.469v.063h-.063l-.031.031-.031-.031H2.281zM7.5 21.703q0-1.109.75-1.859l9.656-9.688 3.719 3.719-9.656 9.688q-.75.781-1.844.781t-1.875-.781q-.75-.75-.75-1.859zm7.438-16.734l2.063-2.063q.813-.844 2.016-.844t2.047.844l7.813 7.813q.844.844.844 2.047t-.844 2.047l-2.063 2.063z" class="symbolFill"/>
    <path d="M2.281 29.5V17.625h.063l-.031-.031L13.844 6.063l2.969 3L6.782 19.094q-.313.313-.703.469t-.797.156-.781-.156-.688-.469l-.625-.625v5.781l4.469 4.344h5.625l-.563-.563q-.625-.625-.625-1.5t.625-1.469L22.75 14.999l2.969 2.969-11.438 11.469v.063h-.063l-.031.031-.031-.031H2.281zm1.188-11.906l.906.938q.188.188.422.281t.484.094q.281 0 .516-.109t.391-.266l9.469-9.469-1.813-1.844zM7.5 21.703q0-1.109.75-1.859l9.656-9.688 3.719 3.719-9.656 9.688q-.375.375-.859.578t-.984.203-.984-.203-.891-.578q-.75-.75-.75-1.859zm.813 0q0 .766.531 1.297.25.25.578.391t.703.141q.344 0 .688-.141t.594-.391l9.063-9.125-2.563-2.563-9.063 9.094q-.531.531-.531 1.297zm4.593 4.844q0 .547.375.922l.906.906 10.375-10.406-1.813-1.813-9.469 9.469q-.375.375-.375.922zm2.032-21.578l2.063-2.063q.406-.406.938-.625t1.094-.219 1.094.219.938.625l7.813 7.813q.844.844.844 2.047t-.844 2.047l-2.063 2.063zm1.156 0l10.719 10.75 1.469-1.469q.625-.625.625-1.484t-.625-1.484l-7.781-7.813q-.313-.281-.688-.438t-.781-.156-.797.156-.672.438z" class="symbolOutline"/>
</svg>
