<svg width="100%" height="100%" style="max-height:64px;max-width:64px" viewBox="0 0 32 32">
    <path d="M-.031 6.469h6.938q-.031-.531-.031-1.094V4.25h18.188v1.125l-.031 1.094h6.938q0 5.063-1.656 8.719t-8 3.844q-.75 1.031-1.766 1.719t-2.359 1q0 1.031.438 2.313t1.813 1.906h2.688v4H9.16v-4h2.625q1.563-.625 1.891-1.891.234-.922.234-1.703 0-.297-.031-.594-1.375-.281-2.438-.984t-1.813-1.734q-6.344-.125-8-3.797T-.028 6.47zm4.469 3.562q0 1.844.563 3.188t2.75 1.469q-.25-1.063-.422-2.234t-.266-2.422H4.438zm6.781.313l2.375 2.281-.563 3.281 2.938-1.531 2.938 1.531-.563-3.281 2.375-2.281-3.281-.5-1.469-2.969L14.5 9.844zm12.969 4.344q2.219-.094 2.813-1.453t.594-3.203h-2.719q-.094 1.25-.266 2.422t-.422 2.234z" class="symbolFill"/>
    <path d="M-.031 6.469h6.938q-.031-.531-.031-1.094V4.25h18.188v1.125l-.031 1.094h6.938q0 5.063-1.656 8.719t-8 3.844q-.75 1.031-1.766 1.719t-2.359 1q0 1.031.438 2.313t1.813 1.906h2.688v4H9.16v-4h2.625q1.563-.625 1.891-1.891.234-.922.234-1.703 0-.297-.031-.594-1.375-.281-2.438-.984t-1.813-1.734q-6.344-.125-8-3.797T-.028 6.47zM1 7.5q.031 1.094.109 1.984t.203 1.641q.156 1.125.453 2.016t.734 1.609q.438.75 1.063 1.328T5 17.062q.438.219.938.391t1.063.266q.594.156 1.266.219t1.391.094h.5l.313.406q.688.938 1.594 1.516t2.031.828l.719.156.094.719q.063.469.047.906 0 .297-.016.578-.063.703-.281 1.297-.156.406-.375.766t-.531.672-.703.594-.859.469l-.188.063H10.19v1.938h11.906v-1.938h-1.875l-.219-.094q-.438-.188-.797-.453t-.672-.609q-.25-.313-.469-.656t-.375-.719q-.25-.594-.391-1.281t-.141-1.438v-.813l.813-.188q1.094-.25 1.969-.828t1.531-1.484l.313-.406.5-.031q1.406-.031 2.578-.281t2.078-.719q.813-.406 1.438-.984t1.063-1.359q.438-.688.734-1.578t.453-1.984q.125-.75.203-1.641t.109-1.953h-6.938V6.472q0-.281.016-.578t.016-.609H7.908q0 .313.016.609t.016.578v1.031H1.002zm2.406 2.531V9h4.625l.063.938q.094 1.313.266 2.438t.391 2.063l.344 1.375-1.406-.094q-1.25-.063-2.172-.578T4.095 13.72q-.469-.813-.578-1.797t-.109-1.891zm1.032 0q0 1.844.563 3.188t2.75 1.469q-.25-1.063-.422-2.234t-.266-2.422H4.438zm18.406 5.75l.344-1.344q.219-.938.391-2.063t.266-2.438l.063-.938h4.719v1.031q0 .906-.125 1.906t-.594 1.813q-.531.906-1.453 1.406t-2.234.563zm1.344-1.093q2.219-.094 2.813-1.453t.594-3.203h-2.719q-.094 1.25-.266 2.422t-.422 2.234z" class="symbolOutline"/>
</svg>
