<svg width="100%" height="100%" style="max-height:64px;max-width:64px" viewBox="0 0 32 32">
    <path d="M0 30.063V17.907q0-.281.094-.5t.281-.406.422-.281.484-.094h3.844q.281 0 .5.094t.406.281.281.406.094.5v12.156q0 .281-.094.516t-.281.422-.406.266-.5.078H1.281q-.25 0-.484-.078t-.422-.266-.281-.422T0 30.063zm7.688.343V17.281h.625q.219 0 .438-.078t.438-.234q.25-.188.516-.453t.578-.609q.313-.375.656-.938t.719-1.281q.375-.75.766-1.625t.797-1.906q.094-.219.219-.438t.281-.406q.188-.219.328-.375t.266-.25l.141-.141.172-.141q.125-.094.234-.172t.234-.172q.375-.313.688-.625t.531-.656q.25-.375.484-.953t.422-1.359q.094-.375.188-.828t.156-.953q.063-.531.109-1.094t.078-1.188q0-.188.156-.281T18.377 0q.063-.031.109-.031h.078q.281 0 .594.078t.688.234q.219.094.406.203t.344.266q.188.125.359.297t.297.359q.375.5.578 1.156t.266 1.5q.016.281.016.563 0 .547-.078 1.063-.125.781-.438 1.5-.031.063-.219.469t-.563 1.125q-.375.688-.625 1.297t-.406 1.109q-.063.25-.094.484t-.031.422.047.344.109.313q1.813-.094 3.25-.109h.563q1.094 0 1.938.047 1.094.031 1.797.125t1.047.25q.344.125.703.469t.734.906q.375.531.547.984t.141.828q0 .125-.125.359t-.375.578q-.25.313-.391.531t-.172.344q0 .188.125.5t.375.75q.281.438.438.75t.156.469-.172.422-.516.672q-.344.375-.516.625t-.172.406.078.453.234.734q.188.438.266.734t.078.453q0 .25-.203.594t-.609.75-.641.656-.297.344q-.031.125-.047.375t-.016.625-.016.625-.047.375q-.125.281-.406.609t-.719.703-.797.625-.672.344q-.594.188-1.563.266T21.468 32t-2.609-.031-2.328-.125l-.875-.078-1.25-.109q-.844-.156-2.516-.469t-4.203-.781z" class="symbolFill"/>
    <path d="M0 30.063V17.907q0-.281.094-.5t.281-.406.422-.281.484-.094h3.844q.281 0 .5.094t.406.281.281.406.094.5v12.156q0 .281-.094.516t-.281.422-.406.266-.5.078H1.281q-.25 0-.484-.078t-.422-.266-.281-.422T0 30.063zm1.281 0h3.844V17.907H1.281v12.156zm6.407.343V17.281h.625q.219 0 .438-.078t.438-.234q.25-.188.516-.453t.578-.609q.313-.375.656-.938t.719-1.281q.375-.75.766-1.625t.797-1.906q.094-.219.219-.438t.281-.406q.188-.219.328-.375t.266-.25l.141-.141.172-.141q.125-.094.234-.172t.234-.172q.375-.313.688-.625t.531-.656q.25-.375.484-.953t.422-1.359q.094-.375.188-.828t.156-.953q.063-.531.109-1.094t.078-1.188q0-.188.156-.281T18.377 0q.063-.031.109-.031h.078q.281 0 .594.078t.688.234q.219.094.406.203t.344.266q.188.125.359.297t.297.359q.375.5.578 1.156t.266 1.5q.016.281.016.563 0 .547-.078 1.063-.125.781-.438 1.5-.031.063-.219.469t-.563 1.125q-.375.688-.625 1.297t-.406 1.109q-.063.25-.094.484t-.031.422.047.344.109.313q1.813-.094 3.25-.109h.563q1.094 0 1.938.047 1.094.031 1.797.125t1.047.25q.344.125.703.469t.734.906q.375.531.547.984t.141.828q0 .125-.125.359t-.375.578q-.25.313-.391.531t-.172.344q0 .188.125.5t.375.75q.281.438.438.75t.156.469-.172.422-.516.672q-.344.375-.516.625t-.172.406.078.453.234.734q.188.438.266.734t.078.453q0 .25-.203.594t-.609.75-.641.656-.297.344q-.031.125-.047.375t-.016.625-.016.625-.047.375q-.125.281-.406.609t-.719.703-.797.625-.672.344q-.594.188-1.563.266T21.468 32t-2.609-.031-2.328-.125l-.875-.078-1.25-.109q-.844-.156-2.516-.469t-4.203-.781zm1.281-1.062q.688.125 2.078.391t3.484.641h10.594q.219-.094.453-.281t.516-.438.453-.453.234-.359l-.016-.047-.016-.141-.016-.25-.016-.375q0-.188.016-.359t.047-.328.078-.297.109-.266q.094-.188.313-.438t.531-.594q.344-.313.531-.516t.219-.266q0-.031-.063-.188t-.188-.406q-.125-.281-.219-.703t-.188-.953v-.156q.031-.125.047-.234t.047-.234.078-.219.109-.188q.063-.125.141-.234t.172-.234.203-.25.234-.25l.156-.156q.063-.063.078-.094l.016-.031q0-.031-.047-.109t-.141-.172q-.063-.094-.109-.188t-.109-.188-.141-.234-.172-.359l-.141-.484q-.078-.265-.141-.547v-.25q.031-.063.047-.125t.016-.094q.031-.063.047-.125t.016-.125q.125-.313.25-.547t.25-.359q.125-.156.234-.25t.203-.094v-.109l-.031-.047q-.063-.25-.156-.453t-.219-.391-.297-.375-.359-.344q0-.031-.016-.047l-.016-.016q0-.031-.016-.031h-.047q-.031-.031-.047-.063t-.047-.031q0-.031-.016-.047t-.047-.016q-.125-.063-.484-.109t-.953-.078q-.563-.031-1.328-.047t-1.766-.016h-.938l-.906.031h-.859l-.859.031q-.188-.094-.469-.25t-.688-.375q-.031-.094-.063-.172t-.063-.172l-.063-.188-.063-.156q0-.094-.016-.172t-.047-.141v-.313q0-.438.094-.906t.281-.969q.188-.531.438-1.078t.563-1.109q.156-.281.266-.516t.203-.391q.094-.188.141-.297t.047-.141q.125-.281.203-.547t.141-.516q.063-.281.078-.563t.016-.594q0-.375-.031-.719t-.125-.625q-.063-.281-.188-.531t-.281-.438q-.094-.156-.234-.281t-.297-.219q-.156-.125-.328-.203t-.391-.109q-.125 1.688-.391 2.953t-.641 2.109q-.375.813-.891 1.484t-1.172 1.203q-.313.219-.547.422t-.422.391q-.156.188-.281.375t-.188.344q-.688 1.75-1.391 3.125t-1.391 2.375q-.656.969-1.328 1.563t-1.359.781v10.875zm19.594-4.313q.031-.031.031-.047v-.078l-.016.016-.016.047v.063zm.625-4.593l.063.125h.031v-.094q.031-.063.031-.109v-.047l-.031.031zm.125-.157z" class="symbolOutline"/>
</svg>
